{"title":"Running Man 2013 BRRip 720p x264 AAC - PRiSTiNE [P2PDL]","uid":9331395,"size":851324922,"categoryP":"video","categoryS":"hd___movies","magnet":"?xt=urn:btih:558676659dee9ef8c4efd73c3c9c64504ffc0aed&amp;dn=Running+Man+2013+BRRip+720p+x264+AAC+-+PRiSTiNE+%5BP2PDL%5D&amp;tr=udp%3A%2F%2Ftracker.openbittorrent.com%3A80&amp;tr=udp%3A%2F%2Fopen.demonii.com%3A1337&amp;tr=udp%3A%2F%2Ftracker.coppersurfer.tk%3A6969&amp;tr=udp%3A%2F%2Fexodus.desync.com%3A6969","seeders":4,"leechers":2,"uploader":"BFAB","files":5,"time":1386776685,"description":"                                                                                                   \n                                                                                                  \n                                                                                                   \nPPPPPPPPPPPPPPPPP   222222222222222   PPPPPPPPPPPPPPPPP  DDDDDDDDDDDDD     LLLLLLLLLLL             \nP::::::::::::::::P 2::::::MAKE!::::22 P:::::::SAVE!::::P D::::SHARE!::DDD  L:::::::::L             \nP::::::PPPPPP:::::P2::::::222222:::::2P::::::PPPPPP:::::PD:::::::::::::::DDL:::::::::L             \nPP:::::P     P:::::2222222     2:::::2PP:::::P     P:::::DDD:::::DDDDD:::::LL:::::::LL             \n  P::::P     P:::::P           2:::::2  P::::P     P:::::P D:::::D    D:::::DL:::::L               \n  P::::P     P:::::P           2:::::2  P::::P     P:::::P D:::::D     D:::::L:::::L               \n  P::::PPPPPP:::::P         2222::::2   P::::PPPPPP:::::P  D:::::D     D:::::L:::::L               \n  P:::::::::::::PP     22222::::::22    P:::::::::::::PP   D:::::D     D:::::L:::::L               \n  P::::PPPPPPPPP     22::::::::222      P::::PPPPPPPPP     D:::::D     D:::::L:::::L               \n  P::::P            2:::::22222         P::::P             D:::::D     D:::::L:::::L               \n  P::::P           2:::::2              P::::P             D:::::D     D:::::L:::::L               \n  P::::P           2:::::2              P::::P             D:::::D    D:::::DL:::::L         LLLLLL\nPP::::::PP         2:::::2       22222PP::::::PP         DDD:::::DDDDD:::::LL:::::::LLLLLLLLL:::::L\nP::::::::P         2::::::2222222:::::P::::::::P         D:::::::::::::::DDL::::::::::::::::::::::L\nP::::::::P         2:::::Vitamin_X::::P::VYTO::P         D::::ViZNU:::DDD  L::::::::::::::::::::::L\nPPPPPPPPP PRiSTiNE 2222222222222222222PPPPPPPPP PRiSTiNE DDDDDDDDDDDDD     LLLLLLLLLLLLLLLLLLLLLLLL\n                                                                                                   \n                                                                                                   \n                                                                                                  \n_______ Visit us at our Semi Public Bittorrent Community ________\n  &lt;a href=&quot;\nhttp://p2pdl.com&quot; rel=&quot;nofollow&quot; target=&quot;_NEW&quot;&gt;\nhttp://p2pdl.com&lt;/a&gt;  _____________________________ &lt;a href=&quot; http://p2pdl.com&quot; rel=&quot;nofollow&quot; target=&quot;_NEW&quot;&gt; http://p2pdl.com&lt;/a&gt;\n\n\n\nRunning Man 2013 BRRip 720p x264 AAC - PRiSTiNE\n\n\nGenre: Action | Comedy | Thriller \nIMDb: http://www.imdb.com/title/tt2763764/\n\n\nFormat                         : MPEG-4\nFile size                      : 802 MiB\nDuration                       : 2h 7mn\nOverall bit rate               : 881 Kbps\n\nVideo\nFormat                         : AVC\nBit rate                       : 798 Kbps\nMaximum bit rate               : 10.3 Mbps\nWidth                          : 1 280 pixels\nHeight                         : 544 pixels\nDisplay aspect ratio           : 2.35:1\nFrame rate mode                : Constant\nFrame rate                     : 23.976 fps\nBit depth                      : 10 bits\nStream size                    : 726 MiB (91%)\nWriting library                : x264 core 140 r2377\n\nAudio\nFormat                         : AAC\nBit rate                       : 80.0 Kbps\nChannel count                  : 2 channels\nChannel positions              : Front: L R\nSampling rate                  : 48.0 KHz\nStream size                    : 72.8 MiB (9%)\nLanguage                       : Korean\n\nSubtitle                       : Yes (English)\n\nSource                         : 1080p.BluRay.x264.DTS-HDWinG\n\n----------------------------------------------------------------------------------------------------\n\n\nEncoded using revolutionary 10bit encoding, which enables us to provide you more crispier \nand sharper images at small sizes, just make sure you follow our instructions without a fault.\nRecommend to you to use latest version of VLC player. Install K-Lite Codec Pack or shark007 codecs\nin case of any kind of problem in playback (For non-VLC Media Player users). Alternatively, install\nCore AVC codecs, the fastest decoder that there is coupled with Community Center Codec Pack and play\non Windows Media Player Classic. Check sample to be sure.\nEnjoy!\n\nEncoder Notes:Looking For Early Access To Anything You Can Provide DVDScr, R5, DVDR, BluRay, Direct\nAudio, Music Releases and Seedboxes. We require dedicated servers, so as to do more \nand fast releases of movies.\nIf You Got anything to offer please contact us at &quot;&lt;a class=&quot;__cf_email__&quot; href=&quot;/cdn-cgi/l/email-protection&quot; data-cfemail=&quot;addddfcaedc5d8dec583cec2c0&quot;&gt;[email&amp;#160;protected]&lt;/a&gt;&lt;script data-cfhash='f9e31' type=&quot;text/javascript&quot;&gt;\n/* &lt;![CDATA[ */!function(){try{var t=&quot;currentScript&quot;in document?document.currentScript:function(){for(var t=document.getElementsByTagName(&quot;script&quot;),e=t.length;e--;)if(t[e].getAttribute(&quot;data-cfhash&quot;))return t[e]}();if(t&amp;&amp;t.previousSibling){var e,r,n,i,c=t.previousSibling,a=c.getAttribute(&quot;data-cfemail&quot;);if(a){for(e=&quot;&quot;,r=parseInt(a.substr(0,2),16),n=2;a.length-n;n+=2)i=parseInt(a.substr(n,2),16)^r,e+=String.fromCharCode(i);e=document.createTextNode(e),c.parentNode.replaceChild(e,c)}t.parentNode.removeChild(t);}}catch(u){}}()/* ]]&gt; */&lt;/script&gt;&quot;.\n\nFace book Fan Page:  \n","torrent":{"xt":"urn:btih:558676659dee9ef8c4efd73c3c9c64504ffc0aed","amp;dn":"Running+Man+2013+BRRip+720p+x264+AAC+-+PRiSTiNE+%5BP2PDL%5D","amp;tr":["udp%3A%2F%2Ftracker.openbittorrent.com%3A80","udp%3A%2F%2Fopen.demonii.com%3A1337","udp%3A%2F%2Ftracker.coppersurfer.tk%3A6969","udp%3A%2F%2Fexodus.desync.com%3A6969"],"infoHash":"558676659dee9ef8c4efd73c3c9c64504ffc0aed","infoHashBuffer":{"type":"Buffer","data":[85,134,118,101,157,238,158,248,196,239,215,60,60,156,100,80,79,252,10,237]},"announce":[],"urlList":[]}}